####
#
# OBJ File Generated by Meshlab
#
####
# Object sphere.obj
#
# Vertices: 22
# Faces: 40
#
####
vn 0.722187 0.559322 0.406945
v 0.766823 0.613512 0.365450
vn 0.245224 0.881681 -0.403118
v 0.272792 0.892466 -0.447377
vn -0.502392 0.805097 -0.315311
v -0.500000 0.809017 -0.309017
vn -0.141269 0.913773 0.380871
v -0.179680 0.987228 0.319412
vn 0.733665 -0.523970 -0.432655
v 0.766823 -0.613512 -0.365450
vn 0.269450 -0.873760 0.404895
v 0.272792 -0.892466 0.447377
vn -0.511696 -0.807044 0.294698
v -0.500000 -0.809017 0.309017
vn -0.141269 -0.913773 -0.380871
v -0.179680 -0.987228 -0.319412
vn 0.933007 -0.260140 0.248646
v 0.987228 -0.319412 0.179680
vn 0.886121 0.328740 -0.326679
v 0.892466 0.447377 -0.272792
vn -0.927906 -0.205550 0.311031
v -0.992683 -0.248062 0.225860
vn -0.838716 0.503628 0.207157
v -0.892466 0.447377 0.272792
vn -0.851587 0.260054 -0.455162
v -0.809017 0.309017 -0.500000
vn -0.823347 -0.479811 -0.303119
v -0.892466 -0.447377 -0.272792
vn 0.164967 0.270883 0.948371
v 0.248062 0.225860 0.992683
vn -0.299075 -0.448242 0.842397
v -0.309017 -0.500000 0.809017
vn 0.505793 -0.264231 0.821191
v 0.447377 -0.272792 0.892466
vn -0.509053 0.235840 0.827795
v -0.447377 0.272792 0.892466
vn 0.164967 -0.270883 -0.948371
v 0.248062 -0.225860 -0.992683
vn -0.260054 0.455162 -0.851587
v -0.309017 0.500000 -0.809017
vn 0.493912 0.273163 -0.825490
v 0.447377 0.272792 -0.892466
vn -0.479744 -0.240228 -0.843882
v -0.447377 -0.272792 -0.892466
# 22 vertices, 0 vertices normals

f 4//4 1//1 2//2
f 10//10 2//2 1//1
f 2//2 3//3 4//4
f 12//12 4//4 3//3
f 8//8 5//5 6//6
f 9//9 6//6 5//5
f 6//6 7//7 8//8
f 14//14 8//8 7//7
f 9//9 5//5 10//10
f 21//21 10//10 5//5
f 10//10 1//1 9//9
f 17//17 9//9 1//1
f 18//18 12//12 11//11
f 11//11 13//13 14//14
f 12//12 13//13 11//11
f 22//22 14//14 13//13
f 15//15 16//16 17//17
f 18//18 16//16 15//15
f 6//6 17//17 16//16
f 4//4 18//18 15//15
f 19//19 20//20 21//21
f 22//22 20//20 19//19
f 2//2 21//21 20//20
f 8//8 22//22 19//19
f 4//4 15//15 1//1
f 17//17 1//1 15//15
f 4//4 12//12 18//18
f 2//2 10//10 21//21
f 20//20 13//13 3//3
f 2//2 20//20 3//3
f 22//22 13//13 20//20
f 12//12 3//3 13//13
f 6//6 9//9 17//17
f 16//16 11//11 7//7
f 6//6 16//16 7//7
f 18//18 11//11 16//16
f 14//14 7//7 11//11
f 8//8 19//19 5//5
f 21//21 5//5 19//19
f 8//8 14//14 22//22
# 40 faces, 0 coords texture

# End of File
